# xmcd
#
# Track frame offsets:
#	150
#	25790
#	53153
#	70528
#	93188
#	114918
#	146903
#	166855
#	184538
#	215313
#	241855
#
# Disc length: 3817 seconds
#
# Revision: 1
# Processed by: cddbd v1.5.1PL0 Copyright (c) Steve Scherf et al.
# Submitted via: CDex 1.50Beta5
#
DISCID=850ee70b
DTITLE=さだまさし - 心の時代
DYEAR=1998
DGENRE=
TTITLE0=心の時代
TTITLE1=・ローズ
TTITLE2=驟雨
TTITLE3=君が選んだひと
TTITLE4=秘密
TTITLE5=神の恵み
TTITLE6=不器用な花
TTITLE7=こころとからだ
TTITLE8=都府楼
TTITLE9=航跡
TTITLE10=白夜の黄昏の光
EXTD=
EXTT0=
EXTT1=
EXTT2=
EXTT3=
EXTT4=
EXTT5=
EXTT6=
EXTT7=
EXTT8=
EXTT9=
EXTT10=
PLAYORDER=
